<svg width="234" height="78" xmlns="http://www.w3.org/2000/svg" xmlns:xlink="http://www.w3.org/1999/xlink" xml:space="preserve" overflow="hidden"><defs><clipPath id="clip0"><rect x="1003" y="602" width="234" height="78"/></clipPath><clipPath id="clip1"><rect x="1003" y="661" width="19" height="19"/></clipPath></defs><g clip-path="url(#clip0)" transform="translate(-1003 -602)"><path d="M572.66 273.744C572.316 273.328 571.7 273.27 571.284 273.613 571.236 273.653 571.192 273.697 571.153 273.744 567.952 277.886 556.001 294.077 556.001 301.7 556.001 310.485 563.124 317.608 571.91 317.608 580.696 317.608 587.818 310.485 587.818 301.7 587.812 294.071 575.861 277.886 572.66 273.744ZM577.293 312.05C577.115 312.126 576.92 312.159 576.727 312.143 576.161 312.138 575.647 311.808 575.406 311.296 575.161 310.573 575.481 309.779 576.16 309.428 581.715 307.167 581.242 300.392 581.142 300.298 581.095 299.519 581.689 298.849 582.468 298.802 583.241 298.755 583.908 299.339 583.963 300.112 584.331 303.107 583.203 309.602 577.293 312.05Z" fill="#00528B" transform="matrix(1.00267 0 0 1 495.543 329.377)"/><path d="M515.298 317.692 507.103 317.692 507.103 273.308 526.987 273.308 526.987 280.445 515.298 280.445 515.298 292.769 526.228 292.769 526.228 299.906 515.329 299.906Z" fill="#00528B" transform="matrix(1.00267 0 0 1 495.543 329.377)"/><path d="M532.542 317.692 532.542 273.308 540.8 273.308 540.8 310.468 552.246 310.468 552.246 317.692Z" fill="#00528B" transform="matrix(1.00267 0 0 1 495.543 329.377)"/><path d="M631.33 317.692 621.005 317.692 616.645 294.438C615.908 290.721 615.432 286.957 615.219 283.173L614.976 285.421 613.731 294.557 609.508 317.692 599.208 317.692 591.162 273.308 599.258 273.308 603.237 298.355C603.624 300.846 604.14 304.79 604.788 310.188 605.294 304.765 605.77 300.89 606.214 298.561L610.947 273.333 619.51 273.333 624.243 298.561C624.872 302.298 625.364 306.194 625.731 310.25 626.441 304.259 626.958 300.303 627.282 298.38L631.137 273.333 639.301 273.333Z" fill="#00528B" transform="matrix(1.00267 0 0 1 495.543 329.377)"/><path d="M666.447 286.181 664.012 275.258 663.919 275.258C664.024 276.023 664.081 276.795 664.087 277.568L664.087 286.162 661.882 286.162 661.882 273.389 665.544 273.389 667.736 283.453 667.805 283.453 669.978 273.389 673.714 273.389 673.714 286.193 671.454 286.193 671.454 277.506C671.454 276.769 671.497 276.033 671.578 275.301L671.51 275.301 669.081 286.187Z" fill="#00528B" transform="matrix(1.00267 0 0 1 495.543 329.377)"/><path d="M683.025 281.286C683.106 282.609 682.751 283.921 682.01 285.022 680.858 286.472 678.777 286.787 677.246 285.745 676.641 285.297 676.187 284.685 675.925 283.982 675.595 283.122 675.44 282.206 675.458 281.286 675.377 279.963 675.732 278.65 676.467 277.549 677.121 276.666 678.167 276.164 679.263 276.21 680.347 276.179 681.381 276.69 682.01 277.574 682.744 278.666 683.106 279.97 683.025 281.286ZM677.837 281.286C677.8 282.068 677.912 282.85 678.167 283.59 678.317 284.056 678.746 284.372 679.238 284.368 680.172 284.368 680.64 283.33 680.64 281.255 680.677 280.476 680.565 279.697 680.303 278.963 680.098 278.375 679.456 278.064 678.871 278.267 678.541 278.381 678.286 278.637 678.173 278.963 677.912 279.708 677.794 280.497 677.837 281.286Z" fill="#00528B" transform="matrix(1.00267 0 0 1 495.543 329.377)"/><path d="M689.526 286.181 689.526 280.364C689.551 279.819 689.464 279.274 689.271 278.764 689.14 278.427 688.81 278.21 688.449 278.222 687.963 278.212 687.521 278.511 687.347 278.969 687.066 279.781 686.948 280.64 686.998 281.497L686.998 286.181 684.669 286.181 684.669 276.428 686.537 276.428 686.817 277.674 686.967 277.674C687.365 276.775 688.262 276.205 689.246 276.235 690.018 276.183 690.772 276.525 691.239 277.144 691.731 277.942 691.961 278.874 691.899 279.81L691.899 286.181Z" fill="#00528B" transform="matrix(1.00267 0 0 1 495.543 329.377)"/><path d="M693.674 273.875C693.655 273.537 693.78 273.206 694.01 272.96 694.265 272.721 694.602 272.599 694.951 272.623 695.598 272.58 696.152 273.069 696.196 273.714 696.202 273.765 696.202 273.817 696.196 273.869 696.215 274.212 696.09 274.547 695.847 274.79 695.604 275.017 695.274 275.136 694.944 275.12 694.602 275.136 694.272 275.018 694.016 274.79 693.78 274.548 693.655 274.215 693.674 273.875ZM696.103 286.181 693.749 286.181 693.749 276.428 696.078 276.428Z" fill="#00528B" transform="matrix(1.00267 0 0 1 495.543 329.377)"/><path d="M701.489 284.387C701.857 284.379 702.218 284.296 702.548 284.144L702.548 285.969C702.031 286.266 701.44 286.402 700.842 286.361 700.132 286.412 699.447 286.131 698.973 285.601 698.513 284.936 698.295 284.135 698.351 283.328L698.351 278.272 697.404 278.272 697.404 277.232 698.65 276.391 699.272 274.323 700.761 274.323 700.761 276.428 702.467 276.428 702.467 278.297 700.698 278.297 700.698 283.428C700.698 284.068 700.96 284.387 701.489 284.387Z" fill="#00528B" transform="matrix(1.00267 0 0 1 495.543 329.377)"/><path d="M711.142 281.286C711.223 282.609 710.868 283.921 710.127 285.022 708.975 286.472 706.895 286.787 705.363 285.745 704.759 285.297 704.304 284.685 704.043 283.982 703.713 283.122 703.557 282.206 703.576 281.286 703.495 279.963 703.85 278.65 704.584 277.549 705.238 276.666 706.285 276.164 707.381 276.21 708.464 276.179 709.498 276.69 710.127 277.574 710.862 278.666 711.223 279.97 711.142 281.286ZM705.955 281.286C705.917 282.068 706.029 282.85 706.285 283.59 706.434 284.056 706.864 284.372 707.356 284.368 708.29 284.368 708.757 283.33 708.757 281.255 708.794 280.476 708.682 279.697 708.421 278.963 708.215 278.375 707.574 278.064 706.988 278.267 706.658 278.381 706.403 278.637 706.291 278.963 706.029 279.708 705.911 280.497 705.955 281.286Z" fill="#00528B" transform="matrix(1.00267 0 0 1 495.543 329.377)"/><path d="M716.94 276.241C717.226 276.241 717.507 276.285 717.781 276.372L717.507 278.633C717.307 278.57 717.096 278.541 716.884 278.546 716.361 278.523 715.863 278.779 715.576 279.218 715.234 279.809 715.078 280.487 715.121 281.167L715.121 286.187 712.792 286.187 712.792 276.428 714.71 276.428 714.972 277.954 715.053 277.954C715.234 277.459 715.52 277.01 715.894 276.64 716.18 276.383 716.554 276.241 716.94 276.241Z" fill="#00528B" transform="matrix(1.00267 0 0 1 495.543 329.377)"/><path d="M718.746 273.875C718.727 273.537 718.852 273.206 719.082 272.96 719.337 272.721 719.674 272.599 720.023 272.623 720.67 272.58 721.224 273.069 721.268 273.714 721.274 273.765 721.274 273.817 721.268 273.869 721.287 274.212 721.162 274.547 720.919 274.79 720.676 275.017 720.346 275.136 720.016 275.12 719.674 275.136 719.344 275.018 719.088 274.79 718.852 274.548 718.727 274.215 718.746 273.875ZM721.175 286.181 718.846 286.181 718.846 276.428 721.15 276.428Z" fill="#00528B" transform="matrix(1.00267 0 0 1 495.543 329.377)"/><path d="M728 286.181 728 280.364C728.025 279.819 727.938 279.274 727.745 278.764 727.614 278.427 727.284 278.21 726.923 278.222 726.437 278.212 725.995 278.511 725.82 278.969 725.553 279.779 725.447 280.634 725.509 281.485L725.509 286.168 723.18 286.168 723.18 276.428 725.048 276.428 725.328 277.674 725.478 277.674C725.876 276.775 726.773 276.205 727.757 276.235 728.529 276.183 729.283 276.525 729.75 277.144 730.242 277.942 730.472 278.874 730.41 279.81L730.41 286.181Z" fill="#00528B" transform="matrix(1.00267 0 0 1 495.543 329.377)"/><path d="M739.284 276.441 739.284 277.805 738.12 278.066C738.363 278.543 738.481 279.075 738.462 279.611 738.512 280.499 738.213 281.373 737.622 282.039 736.999 282.648 736.146 282.967 735.274 282.917 735.062 282.924 734.857 282.901 734.651 282.849 734.539 282.95 734.433 283.061 734.333 283.179 734.234 283.308 734.178 283.469 734.184 283.634 734.184 284.049 734.539 284.256 735.243 284.256L736.65 284.256C737.354 284.211 738.045 284.454 738.562 284.929 739.048 285.484 739.291 286.211 739.235 286.947 739.291 287.954 738.867 288.928 738.095 289.575 737.142 290.252 735.984 290.58 734.819 290.503 733.935 290.559 733.057 290.311 732.328 289.799 731.73 289.306 731.406 288.559 731.45 287.787 731.444 287.266 731.618 286.759 731.948 286.355 732.31 285.925 732.789 285.613 733.331 285.458 733.044 285.348 732.789 285.161 732.602 284.916 732.409 284.671 732.31 284.368 732.316 284.057 732.316 283.873 732.341 283.689 732.403 283.515 732.465 283.352 732.546 283.199 732.652 283.061 732.851 282.832 733.076 282.624 733.312 282.438 732.889 282.167 732.559 281.774 732.359 281.311 732.123 280.78 732.004 280.204 732.011 279.623 731.948 278.714 732.253 277.818 732.851 277.132 733.493 276.514 734.371 276.195 735.261 276.254 735.492 276.258 735.722 276.281 735.946 276.322 736.146 276.353 736.339 276.398 736.532 276.459ZM733.549 287.6C733.53 287.937 733.661 288.264 733.91 288.491 734.209 288.716 734.576 288.827 734.95 288.802 735.51 288.842 736.065 288.7 736.538 288.398 736.887 288.14 737.086 287.728 737.067 287.295 737.098 287.006 736.993 286.719 736.781 286.517 736.457 286.331 736.083 286.25 735.716 286.286L734.589 286.286C734.296 286.276 734.01 286.408 733.829 286.641 733.63 286.919 733.53 287.258 733.549 287.6ZM734.265 279.611C734.265 280.761 734.589 281.336 735.236 281.336 735.884 281.336 736.202 280.755 736.183 279.592 736.183 278.401 735.865 277.805 735.236 277.805 734.607 277.805 734.284 278.409 734.265 279.617Z" fill="#00528B" transform="matrix(1.00267 0 0 1 495.543 329.377)"/><path d="M667.643 302.372 661.87 302.372 661.87 289.581 667.643 289.581 667.643 291.642 664.255 291.642 664.255 294.687 667.369 294.687 667.369 296.755 664.255 296.755 664.255 300.305 667.643 300.305Z" fill="#00528B" transform="matrix(1.00267 0 0 1 495.543 329.377)"/><path d="M670.931 302.372 668.384 292.614 670.8 292.614 672.046 298.262C672.102 298.524 672.164 298.908 672.232 299.414 672.301 299.92 672.351 300.284 672.369 300.504L672.407 300.504C672.407 300.33 672.432 300.079 672.481 299.75 672.531 299.422 672.575 299.121 672.618 298.847 672.662 298.573 673.117 296.498 673.97 292.62L676.386 292.62 673.82 302.372Z" fill="#00528B" transform="matrix(1.00267 0 0 1 495.543 329.377)"/><path d="M682.147 302.372 681.68 301.04 681.63 301.04C681.374 301.515 681.007 301.922 680.559 302.223 680.129 302.454 679.649 302.565 679.164 302.547 678.504 302.573 677.868 302.273 677.47 301.743 677.021 301.085 676.803 300.297 676.847 299.501 676.778 298.65 677.09 297.812 677.694 297.21 678.416 296.653 679.307 296.361 680.222 296.381L681.518 296.332 681.518 295.634C681.518 294.725 681.125 294.27 680.334 294.27 679.612 294.315 678.921 294.552 678.323 294.955L677.52 293.342C678.46 292.736 679.562 292.416 680.683 292.421 681.561 292.361 682.421 292.686 683.043 293.311 683.616 294.01 683.903 294.9 683.853 295.802L683.853 302.354ZM680.123 300.728C680.54 300.733 680.932 300.515 681.144 300.155 681.418 299.695 681.549 299.164 681.524 298.629L681.524 297.801 680.808 297.839C680.372 297.828 679.948 297.992 679.637 298.293 679.357 298.646 679.226 299.091 679.263 299.539 679.269 300.331 679.556 300.728 680.129 300.728Z" fill="#00528B" transform="matrix(1.00267 0 0 1 495.543 329.377)"/><path d="M688.069 302.372 685.74 302.372 685.74 288.746 688.069 288.746Z" fill="#00528B" transform="matrix(1.00267 0 0 1 495.543 329.377)"/><path d="M695.299 302.372 695.013 301.127 694.888 301.127C694.471 302.013 693.568 302.571 692.59 302.553 691.824 302.601 691.077 302.268 690.604 301.662 690.099 300.866 689.863 299.93 689.931 298.991L689.931 292.62 692.285 292.62 692.285 298.424C692.254 298.973 692.341 299.523 692.54 300.037 692.671 300.373 693.001 300.591 693.362 300.579 693.848 300.587 694.29 300.284 694.458 299.825 694.739 299.013 694.857 298.154 694.807 297.297L694.807 292.62 697.161 292.62 697.161 302.378Z" fill="#00528B" transform="matrix(1.00267 0 0 1 495.543 329.377)"/><path d="M703.899 302.372 703.432 301.04 703.383 301.04C703.127 301.515 702.76 301.922 702.311 302.223 701.882 302.454 701.402 302.565 700.916 302.547 700.256 302.573 699.621 302.273 699.223 301.743 698.774 301.085 698.556 300.297 698.6 299.501 698.531 298.65 698.843 297.812 699.447 297.21 700.169 296.653 701.06 296.361 701.975 296.381L703.27 296.332 703.27 295.634C703.27 294.725 702.878 294.27 702.087 294.27 701.365 294.315 700.674 294.552 700.076 294.955L699.272 293.342C700.213 292.736 701.315 292.416 702.436 292.421 703.314 292.361 704.173 292.686 704.796 293.311 705.369 294.01 705.656 294.9 705.606 295.802L705.606 302.354ZM701.844 300.728C702.262 300.733 702.654 300.515 702.866 300.155 703.14 299.695 703.27 299.164 703.246 298.629L703.246 297.801 702.529 297.839C702.093 297.828 701.67 297.992 701.359 298.293 701.078 298.646 700.948 299.091 700.985 299.539 701.004 300.331 701.29 300.728 701.844 300.728Z" fill="#00528B" transform="matrix(1.00267 0 0 1 495.543 329.377)"/><path d="M710.88 300.579C711.248 300.571 711.609 300.488 711.939 300.336L711.939 302.16C711.422 302.458 710.831 302.594 710.233 302.553 709.523 302.604 708.838 302.323 708.365 301.793 707.904 301.128 707.686 300.326 707.742 299.52L707.742 294.463 706.795 294.463 706.795 293.423 708.041 292.583 708.663 290.515 710.152 290.515 710.152 292.62 711.921 292.62 711.921 294.488 710.152 294.488 710.152 299.62C710.108 300.259 710.351 300.579 710.88 300.579Z" fill="#00528B" transform="matrix(1.00267 0 0 1 495.543 329.377)"/><path d="M713.228 290.067C713.21 289.728 713.334 289.398 713.565 289.151 713.82 288.913 714.156 288.791 714.505 288.815 715.153 288.772 715.707 289.261 715.75 289.906 715.757 289.957 715.757 290.009 715.75 290.06 715.769 290.404 715.645 290.739 715.402 290.982 715.159 291.209 714.829 291.328 714.499 291.312 714.156 291.328 713.826 291.209 713.571 290.982 713.334 290.739 713.21 290.407 713.228 290.067ZM715.657 302.372 713.328 302.372 713.328 292.62 715.657 292.62Z" fill="#00528B" transform="matrix(1.00267 0 0 1 495.543 329.377)"/><path d="M724.886 297.477C724.967 298.801 724.612 300.113 723.871 301.214 722.719 302.664 720.639 302.978 719.107 301.936 718.503 301.489 718.048 300.876 717.787 300.174 717.457 299.313 717.301 298.398 717.32 297.477 717.239 296.155 717.594 294.842 718.329 293.741 718.983 292.857 720.029 292.355 721.125 292.402 722.208 292.37 723.242 292.881 723.871 293.766 724.606 294.858 724.967 296.162 724.886 297.477ZM719.699 297.477C719.661 298.26 719.773 299.042 720.029 299.782 720.178 300.248 720.608 300.564 721.1 300.56 722.034 300.56 722.501 299.522 722.501 297.446 722.538 296.668 722.426 295.889 722.165 295.155 721.959 294.567 721.318 294.255 720.732 294.459 720.402 294.572 720.147 294.828 720.035 295.155 719.767 295.898 719.649 296.688 719.686 297.477Z" fill="#00528B" transform="matrix(1.00267 0 0 1 495.543 329.377)"/><path d="M731.375 302.372 731.375 296.556C731.4 296.01 731.313 295.465 731.12 294.955 730.989 294.619 730.659 294.402 730.298 294.413 729.812 294.403 729.37 294.703 729.196 295.161 728.915 295.972 728.797 296.832 728.847 297.689L728.847 302.372 726.518 302.372 726.518 292.62 728.386 292.62 728.666 293.865 728.816 293.865C729.214 292.966 730.111 292.397 731.095 292.427 731.867 292.375 732.621 292.716 733.088 293.336 733.58 294.134 733.81 295.066 733.748 296.001L733.748 302.372Z" fill="#00528B" transform="matrix(1.00267 0 0 1 495.543 329.377)"/><path d="M664.255 313.582 664.255 318.564 661.87 318.564 661.87 305.772 664.984 305.772C666.042 305.683 667.095 306.02 667.904 306.707 668.589 307.496 668.932 308.529 668.845 309.571 668.845 311.19 668.297 312.319 667.207 312.959L669.698 318.564 667.151 318.564 665.127 313.582ZM664.255 311.533 664.878 311.533C665.332 311.575 665.781 311.397 666.086 311.053 666.36 310.631 666.491 310.13 666.453 309.627 666.497 309.13 666.36 308.633 666.061 308.232 665.737 307.93 665.301 307.779 664.859 307.815L664.236 307.815Z" fill="#00528B" transform="matrix(1.00267 0 0 1 495.543 329.377)"/><path d="M674.3 318.738C673.185 318.786 672.12 318.302 671.417 317.437 670.651 316.367 670.283 315.068 670.364 313.756 670.289 312.43 670.619 311.113 671.317 309.982 671.909 309.098 672.917 308.585 673.982 308.625 674.948 308.591 675.875 309.021 676.473 309.783 677.14 310.731 677.464 311.877 677.395 313.034L677.395 314.279 672.712 314.279C672.675 314.968 672.861 315.65 673.247 316.222 673.59 316.641 674.107 316.873 674.649 316.845 675.477 316.825 676.28 316.579 676.978 316.135L676.978 318.053C676.162 318.523 675.24 318.76 674.3 318.738ZM673.957 310.418C673.609 310.43 673.291 310.633 673.135 310.948 672.88 311.458 672.755 312.022 672.762 312.592L675.128 312.592C675.147 312.034 675.041 311.479 674.804 310.972 674.655 310.637 674.325 310.421 673.957 310.418Z" fill="#00528B" transform="matrix(1.00267 0 0 1 495.543 329.377)"/><path d="M684.189 315.737C684.239 316.564 683.934 317.374 683.355 317.966 682.663 318.553 681.767 318.841 680.864 318.769 680.029 318.802 679.201 318.606 678.472 318.203L678.472 316.179C678.821 316.415 679.201 316.602 679.6 316.733 679.961 316.866 680.347 316.94 680.733 316.951 681.032 316.972 681.331 316.876 681.561 316.683 681.754 316.501 681.86 316.244 681.848 315.979 681.848 315.691 681.742 315.413 681.549 315.201 681.225 314.881 680.851 314.606 680.453 314.385 679.849 314.058 679.332 313.598 678.933 313.04 678.616 312.534 678.46 311.948 678.472 311.352 678.441 310.6 678.753 309.875 679.326 309.384 679.992 308.867 680.826 308.608 681.667 308.656 682.526 308.656 683.373 308.893 684.108 309.341L683.349 311.016C682.85 310.714 682.284 310.538 681.704 310.505 681.455 310.485 681.212 310.571 681.032 310.742 680.882 310.898 680.801 311.106 680.808 311.321 680.808 311.582 680.901 311.834 681.082 312.025 681.387 312.323 681.736 312.578 682.109 312.785 682.57 313.044 683 313.358 683.386 313.719 683.629 313.974 683.822 314.271 683.953 314.597 684.102 314.958 684.183 315.345 684.189 315.737Z" fill="#00528B" transform="matrix(1.00267 0 0 1 495.543 329.377)"/><path d="M689.258 318.738C688.144 318.786 687.079 318.302 686.375 317.437 685.609 316.367 685.242 315.068 685.323 313.756 685.248 312.43 685.578 311.113 686.275 309.982 686.867 309.098 687.876 308.585 688.941 308.625 689.906 308.591 690.834 309.021 691.432 309.783 692.098 310.731 692.422 311.877 692.354 313.034L692.354 314.279 687.67 314.279C687.633 314.968 687.82 315.65 688.206 316.222 688.549 316.641 689.065 316.873 689.607 316.845 690.435 316.825 691.239 316.579 691.936 316.135L691.936 318.053C691.121 318.523 690.199 318.76 689.258 318.738ZM688.916 310.418C688.567 310.43 688.25 310.633 688.094 310.948 687.839 311.458 687.714 312.022 687.72 312.592L690.087 312.592C690.105 312.034 690 311.479 689.763 310.972 689.613 310.639 689.29 310.423 688.922 310.418Z" fill="#00528B" transform="matrix(1.00267 0 0 1 495.543 329.377)"/><path d="M698.693 318.564 698.226 317.231 698.176 317.231C697.921 317.707 697.554 318.114 697.105 318.414 696.675 318.645 696.196 318.757 695.71 318.738 695.05 318.765 694.415 318.465 694.016 317.935 693.568 317.277 693.35 316.488 693.394 315.693 693.325 314.842 693.636 314.003 694.241 313.401 694.963 312.845 695.853 312.553 696.769 312.573L698.064 312.523 698.064 311.819C698.064 310.91 697.672 310.456 696.881 310.456 696.159 310.5 695.467 310.737 694.87 311.141L694.066 309.528C695.007 308.921 696.109 308.601 697.23 308.606 698.108 308.546 698.967 308.871 699.59 309.497 700.163 310.196 700.449 311.085 700.4 311.988L700.4 318.539ZM696.669 316.92C697.086 316.925 697.479 316.707 697.691 316.347 697.965 315.887 698.095 315.356 698.07 314.821L698.07 313.993 697.354 314.03C696.918 314.019 696.495 314.183 696.184 314.485 695.903 314.838 695.772 315.283 695.81 315.73 695.816 316.523 696.103 316.92 696.669 316.92Z" fill="#00528B" transform="matrix(1.00267 0 0 1 495.543 329.377)"/><path d="M706.446 308.625C706.733 308.624 707.013 308.668 707.287 308.755L707.013 311.016C706.814 310.953 706.602 310.924 706.391 310.929 705.867 310.906 705.369 311.162 705.083 311.601 704.74 312.192 704.584 312.871 704.628 313.551L704.628 318.57 702.299 318.57 702.299 308.812 704.217 308.812 704.479 310.337 704.56 310.337C704.74 309.842 705.027 309.393 705.4 309.023 705.687 308.766 706.06 308.625 706.446 308.625Z" fill="#00528B" transform="matrix(1.00267 0 0 1 495.543 329.377)"/><path d="M711.553 318.738C710.513 318.802 709.517 318.332 708.9 317.493 708.221 316.371 707.904 315.066 707.991 313.756 707.991 312.042 708.277 310.761 708.85 309.914 709.461 309.062 710.469 308.59 711.516 308.668 711.902 308.671 712.282 308.723 712.655 308.824 713.035 308.92 713.396 309.073 713.726 309.279L713.06 311.091C712.674 310.837 712.232 310.689 711.771 310.661 711.279 310.657 710.849 310.973 710.7 311.44 710.445 312.186 710.332 312.974 710.37 313.762 710.332 314.532 710.438 315.301 710.694 316.029 710.843 316.483 711.273 316.785 711.752 316.777 712.412 316.75 713.048 316.534 713.583 316.154L713.583 318.203C712.973 318.569 712.269 318.754 711.553 318.738Z" fill="#00528B" transform="matrix(1.00267 0 0 1 495.543 329.377)"/><path d="M719.848 318.564 719.848 312.747C719.848 311.315 719.487 310.599 718.771 310.599 718.248 310.591 717.781 310.939 717.644 311.446 717.394 312.23 717.289 313.052 717.32 313.875L717.32 318.558 714.991 318.558 714.991 304.938 717.32 304.938 717.32 307.971C717.32 308.361 717.282 309.059 717.214 310.063L717.339 310.063C717.687 309.183 718.547 308.61 719.493 308.625 720.278 308.574 721.031 308.915 721.517 309.534 722.028 310.325 722.271 311.26 722.202 312.199L722.202 318.564Z" fill="#00528B" transform="matrix(1.00267 0 0 1 495.543 329.377)"/><path d="M143.856 2.0115 143.856 46.2271" stroke="#00528B" stroke-width="0.311377" stroke-miterlimit="10" fill="none" transform="matrix(1.00267 0 0 1 1003.2 602)"/><path d="M737.173 332.028 721.604 332.028C720.77 332.028 720.091 332.705 720.091 333.541L720.091 349.11C720.091 349.946 720.77 350.623 721.604 350.623L723.815 350.623C724.195 350.624 724.569 350.553 724.924 350.411 725.721 350.142 726.474 349.763 727.166 349.284 727.913 348.858 728.529 348.228 728.934 347.466 729.14 346.835 729.183 346.162 729.059 345.51 728.909 344.726 728.542 343.997 728.006 343.406 727.433 342.698 726.929 341.939 726.499 341.139 726.256 340.676 726.063 340.19 725.92 339.688 725.783 339.189 725.795 338.654 725.634 338.162 725.721 338.417 725.434 339.071 725.353 339.32 724.893 340.709 724.425 341.525 722.912 342.26 722.688 342.366 722.134 342.583 721.909 342.658 722.632 342.236 723.292 341.718 723.877 341.12 724.351 340.542 724.687 339.868 724.868 339.146 725.054 338.182 725.366 337.246 725.795 336.362 725.939 336.04 726.126 335.74 726.35 335.472 727.346 334.031 729.177 333.422 730.84 333.977 732.253 334.544 732.546 336.418 733.393 337.52 734.881 339.463 735.616 340.69 735.984 341.73 734.489 339.937 733.194 337.57 731.294 337.072 730.099 336.755 728.149 336.686 728.293 338.604 728.336 339.036 728.48 339.451 728.71 339.818 729.781 341.587 731.649 342.608 732.627 344.483 733.549 346.239 733.966 348.394 732.995 350.231 732.926 350.365 732.833 350.491 732.733 350.605L737.173 350.605C738.008 350.605 738.687 349.927 738.687 349.091L738.687 333.522C738.674 332.694 738.002 332.028 737.173 332.028Z" fill="#B45340" transform="matrix(1.00267 0 0 1 495.543 329.377)"/><path d="M224.908 63.0477C224.908 63.3538 224.66 63.6019 224.354 63.6019 224.047 63.6019 223.799 63.3538 223.799 63.0477 223.799 62.7416 224.047 62.4934 224.354 62.4934 224.66 62.4934 224.908 62.7416 224.908 63.0477Z" fill="#B45340" transform="matrix(1.00267 0 0 1 1003.2 602)"/><path d="M688.181 339.906 688.144 339.906 688.25 340.092Z" fill="#95A9CB" transform="matrix(1.00267 0 0 1 495.543 329.377)"/><path d="M679.344 337.39C680.253 337.767 681.194 338.08 682.147 338.324 681.076 337.871 680.098 337.225 679.263 336.418 678.603 336.127 678.068 335.616 677.744 334.973 676.679 331.947 682.776 335.957 682.776 335.957 684.208 336.402 685.572 337.046 686.823 337.869 686.836 337.755 686.855 337.643 686.886 337.533 687.041 336.972 687.558 337.004 688.05 337.053 687.976 336.966 687.565 336.898 687.471 336.829 687.222 336.661 686.979 336.443 687.079 336.088 687.178 335.807 687.49 335.66 687.77 335.762 687.783 335.764 687.789 335.767 687.795 335.771 688.013 335.897 688.262 335.969 688.517 335.982 688.791 335.982 689.196 335.87 689.414 336.051 689.632 336.231 689.632 336.474 689.726 336.674 689.782 336.797 689.838 336.918 689.906 337.035 690.031 337.109 690.155 337.195 690.267 337.29 690.448 337.477 690.529 337.913 690.342 338.056 690.143 338.201 689.881 338.225 689.663 338.118 689.557 338.069 689.445 337.919 689.333 337.875 689.234 337.823 689.14 337.758 689.053 337.682 689.24 337.825 689.383 338.017 689.464 338.237 689.501 338.43 689.339 338.567 689.209 338.685 689.078 338.813 688.935 338.932 688.785 339.04 690.118 339.722 691.351 340.588 692.447 341.612 693.674 342.237 694.838 342.982 695.922 343.835L695.922 333.541C695.922 332.705 695.243 332.028 694.409 332.028L678.84 332.028C678.005 332.028 677.326 332.705 677.326 333.541L677.326 337.141C678.012 337.078 678.697 337.163 679.344 337.39Z" fill="#95A9CB" transform="matrix(1.00267 0 0 1 495.543 329.377)"/><path d="M695.791 345.461C695.069 345.492 694.365 345.271 693.786 344.838 692.671 344.51 691.631 343.98 690.709 343.275 691.394 343.982 692.123 344.639 692.902 345.243 692.902 345.243 694.315 346.488 694.147 347.366 694.147 347.366 694.508 348.736 692.036 347.478 692.036 347.478 685.846 344.987 686.531 341.251L686.531 341.251C686.456 341.277 686.419 341.359 686.444 341.433 686.444 341.439 686.45 341.444 686.45 341.45 686.45 341.45 686.381 342.341 686.082 342.285 686.145 342.378 686.12 342.496 685.896 342.621 685.896 342.621 685.821 342.496 685.678 343.181 685.678 343.181 685.634 343.505 685.429 343.493 685.223 343.48 685.136 343.387 685.005 343.331 685.111 343.393 685.472 343.574 685.348 343.76 685.223 343.947 685.242 343.76 685.173 344.066 685.154 344.183 685.086 344.287 684.986 344.352 684.986 344.352 684.93 344.57 684.874 344.576 684.818 344.583 684.874 344.776 684.725 344.8L684.687 344.8C684.719 344.869 684.687 344.95 684.606 345.043 684.413 345.264 684.258 345.52 684.158 345.797 684.027 345.902 683.847 345.928 683.691 345.865 683.741 345.915 683.965 345.996 683.94 346.065 683.928 346.113 683.903 346.157 683.865 346.189 683.71 346.374 683.585 346.585 683.504 346.812 683.367 346.88 683.205 346.902 683.056 346.874 683.106 346.937 683.317 347.08 683.218 347.173 683.075 347.346 682.962 347.545 682.894 347.759 682.757 347.801 682.614 347.801 682.477 347.759 682.539 347.815 682.732 347.995 682.626 348.095 682.495 348.25 682.396 348.427 682.333 348.618 682.196 348.658 682.059 348.685 681.922 348.699 681.972 348.755 682.209 348.948 682.178 348.973 682.147 348.998 681.437 349.87 681.374 349.44L681.325 349.44C681.256 349.44 681.212 349.44 681.188 349.44 681.219 349.184 681.281 348.933 681.374 348.693 681.374 348.568 681.624 348.643 681.723 348.662 681.667 348.572 681.624 348.476 681.592 348.375 681.729 348.223 681.835 348.048 681.904 347.858 681.941 347.721 682.253 347.721 682.333 347.746 682.253 347.641 682.178 347.528 682.115 347.41 682.253 347.258 682.358 347.077 682.421 346.88 682.458 346.75 682.701 346.737 682.782 346.75 682.72 346.675 682.595 346.638 682.595 346.451 682.595 346.264 682.975 345.828 682.975 345.828 683.018 345.654 683.305 345.679 683.398 345.716 683.324 345.641 683.218 345.579 683.218 345.529 683.211 345.429 683.23 345.329 683.268 345.236 683.436 345.063 683.548 344.848 683.604 344.614 683.635 344.483 683.697 344.427 683.76 344.414L683.76 344.383C683.71 344.246 683.878 344.147 683.878 344.147 683.878 344.147 684.015 343.935 684.015 343.935 684.021 343.815 684.083 343.703 684.177 343.63 684.376 343.437 684.351 343.331 684.351 343.331 684.351 343.156 684.7 343.2 684.843 343.275 684.756 343.206 684.575 343.15 684.538 343.007 684.501 342.864 684.7 342.77 684.7 342.77 685.223 342.316 685.08 342.309 685.08 342.309 685.08 342.048 685.173 341.973 685.292 341.986 685.074 341.755 685.827 341.238 685.827 341.238 685.908 341.233 685.964 341.164 685.958 341.085 685.958 341.08 685.958 341.075 685.958 341.07 685.952 341.025 685.952 340.979 685.958 340.933 683.062 343.312 677.862 339.208 677.862 339.208 677.675 339.084 677.526 338.971 677.383 338.866L677.383 349.085C677.383 349.921 678.061 350.598 678.896 350.598L694.465 350.598C695.299 350.602 695.972 349.93 695.978 349.098 695.978 349.093 695.978 349.089 695.978 349.085L695.978 345.411Z" fill="#95A9CB" transform="matrix(1.00267 0 0 1 495.543 329.377)"/><path d="M644.277 344.881C643.903 345.672 643.835 347.802 643.654 348.83 643.741 348.83 643.804 348.83 643.804 348.749 643.86 348.277 643.941 347.808 644.059 347.348 644.408 346.388 644.408 345.361 645.005 344.495 645.329 344.016 645.753 343.617 646.251 343.325 646.232 342.891 646.17 342.461 646.058 342.042 645.417 342.958 644.825 343.906 644.277 344.881Z" fill="#76AE99" transform="matrix(1.00267 0 0 1 495.543 329.377)"/><path d="M645.012 347.914C645.149 347.612 645.304 347.316 645.473 347.03 645.734 346.581 645.94 346.105 646.095 345.61 646.239 345.058 646.313 344.492 646.32 343.922 645.684 344.43 645.242 345.143 645.074 345.94 644.962 346.592 644.943 347.257 645.012 347.914Z" fill="#76AE99" transform="matrix(1.00267 0 0 1 495.543 329.377)"/><path d="M640.41 342.914C640.217 343.522 640.08 344.148 639.999 344.782 639.918 345.66 639.824 346.65 640.298 347.335 640.061 345.778 640.684 343.91 640.41 342.914Z" fill="#76AE99" transform="matrix(1.00267 0 0 1 495.543 329.377)"/><path d="M651.65 332.034 636.081 332.034C635.247 332.034 634.574 332.708 634.574 333.541 634.574 333.543 634.574 333.545 634.574 333.547L634.574 349.116C634.568 349.949 635.241 350.626 636.075 350.629 636.075 350.629 636.081 350.629 636.081 350.629L641.437 350.629C640.54 349.594 639.911 348.35 639.619 347.011 639.463 346.271 639.426 345.51 639.507 344.757 639.65 343.865 639.88 342.989 640.192 342.141 640.192 342.197 639.812 341.07 639.457 340.429 639.208 340.037 638.927 339.663 638.629 339.308 638.541 339.177 638.629 339.451 638.186 339.407 637.601 339.273 637.072 338.97 636.661 338.536 636.15 338.006 635.284 336.86 635.453 336.561 635.621 336.263 637.408 336.15 638.261 336.891 638.846 337.333 639.183 338.027 639.17 338.76 639.139 338.862 639.077 338.948 638.984 339.003 638.984 339.003 638.859 339.003 638.846 339.034 638.834 339.065 639.027 339.246 639.052 339.277 639.183 339.414 639.314 339.557 639.438 339.7 639.737 340.038 639.986 340.416 640.179 340.821 640.266 341.024 640.347 341.232 640.416 341.444 640.416 341.481 640.522 341.68 640.491 341.718 640.765 341.213 640.933 340.659 640.989 340.086 640.989 339.955 641.032 339.893 640.989 339.812 640.945 339.731 640.802 339.906 640.59 339.719 640.366 339.473 640.198 339.18 640.098 338.859 639.974 338.399 639.949 337.916 640.036 337.446 640.173 336.798 640.391 336.17 640.69 335.577 640.69 335.521 641.082 335.795 641.113 335.82 641.263 335.942 641.394 336.084 641.506 336.244 641.885 336.763 642.116 337.374 642.184 338.012 642.228 338.704 642.184 339.762 641.412 339.787 641.443 340.429 641.325 341.07 641.057 341.656 640.989 341.786 640.914 341.917 640.846 342.048 640.777 342.179 640.746 342.191 640.765 342.253 640.951 342.894 641.039 343.56 641.026 344.228 641.026 344.85 640.933 345.106 640.902 345.473 640.821 345.948 640.802 346.432 640.852 346.912 640.92 347.285 641.151 347.659 641.25 348.014 641.35 348.369 641.306 348.774 641.568 349.079 641.475 348.973 641.524 348.5 641.524 348.356 641.468 347.366 641.655 346.377 642.066 345.473 642.334 344.913 642.689 344.414 642.969 343.866 643.249 343.318 642.969 343.051 642.888 342.534 642.801 341.959 642.882 341.372 643.112 340.84 643.293 340.441 643.735 340.012 643.249 339.632 643.555 339.345 643.561 339.887 643.797 339.713 643.866 339.663 643.797 339.482 643.934 339.463 644.071 339.445 644.003 339.812 643.972 339.893 644.103 339.85 644.221 339.75 644.345 339.706 644.433 339.899 644.271 339.98 644.221 340.142 644.184 340.256 644.184 340.378 644.221 340.491 644.327 340.898 644.383 341.316 644.389 341.737 644.271 343.543 642.471 344.85 642.191 346.638 642.06 347.453 642.402 348.176 642.515 348.967 642.515 348.78 642.639 348.674 642.732 348.518 643.081 347.933 643.062 347.005 643.181 346.351 643.399 345.188 643.941 344.11 644.738 343.237 644.993 342.952 645.223 342.643 645.423 342.316 645.535 342.116 645.877 341.463 645.709 341.232 645.398 340.752 645.055 340.292 644.682 339.856 644.19 339.329 643.847 338.686 643.673 337.988 643.592 337.645 643.561 337.292 643.592 336.941 643.66 336.651 643.692 336.355 643.685 336.057 643.685 335.908 643.461 335.814 643.474 335.521 643.474 335.223 643.542 334.929 643.679 334.662 643.903 334.197 644.252 333.806 644.694 333.535 644.825 333.441 644.956 333.354 645.093 333.273 645.336 333.134 645.591 333.015 645.852 332.918 645.983 332.866 646.114 332.82 646.251 332.781 646.282 332.781 646.637 332.682 646.637 332.675 646.612 333.141 646.494 333.597 646.282 334.014 646.139 334.344 645.971 334.637 645.809 334.98 645.691 335.236 645.535 335.472 645.342 335.677 645.099 335.939 644.837 336.3 644.445 336.3 644.314 336.312 644.19 336.289 644.071 336.231 644.009 336.391 643.959 336.555 643.928 336.723 643.909 336.931 643.909 337.139 643.928 337.346 643.966 337.847 644.121 338.331 644.383 338.76 644.576 339.074 644.794 339.371 645.043 339.644 645.311 339.919 645.541 340.224 645.734 340.553 645.734 340.442 645.722 340.332 645.703 340.223 645.678 340.094 645.659 339.962 645.653 339.831 645.641 339.7 645.641 339.569 645.653 339.439 645.653 339.37 645.653 339.302 645.653 339.227 645.653 339.152 645.653 339.127 645.653 339.096 645.348 338.716 645.566 337.963 645.771 337.645 645.99 337.33 646.257 337.058 646.575 336.842 646.793 336.68 647.023 336.537 647.266 336.412 647.465 336.306 647.665 336.194 647.889 336.101 648.188 335.967 648.512 335.893 648.835 335.883 648.935 335.945 648.835 336.256 648.835 336.35 648.798 336.577 648.742 336.801 648.661 337.016 648.493 337.388 648.287 337.739 648.038 338.062 647.808 338.412 647.521 338.724 647.198 338.99 646.892 339.28 646.469 339.421 646.052 339.376 645.884 340.068 646.27 340.622 646.214 341.438 646.394 341.771 646.544 342.119 646.662 342.478 646.731 342.682 646.78 342.89 646.824 343.1 647.179 342.957 648.107 342.602 648.107 342.428 648.107 342.378 647.92 342.359 647.845 342.222 647.771 342.085 647.845 341.973 647.883 341.842 648.132 341.354 648.611 341.028 649.159 340.977 649.601 340.941 650.037 340.941 650.48 340.977 650.803 340.977 651.102 340.977 651.451 340.977 651.6 340.982 651.75 341 651.899 341.033 651.968 341.05 652.036 341.073 652.105 341.101 652.105 341.101 652.273 341.164 652.279 341.195 652.273 341.491 652.13 341.767 651.893 341.942 651.806 342.029 651.725 342.116 651.632 342.197 651.295 342.492 650.909 342.718 650.486 342.864 650.019 343.068 649.508 343.137 649.004 343.063 648.798 343.032 648.605 342.968 648.418 342.876 648.368 342.821 648.337 342.758 648.312 342.689 647.87 343.031 647.391 343.33 646.892 343.58 647.011 344.786 646.799 346.001 646.27 347.092 646.046 347.584 646.07 349.216 644.812 350.667L651.663 350.667C652.497 350.667 653.176 349.989 653.176 349.154L653.176 333.585C653.195 332.749 652.535 332.055 651.7 332.035 651.681 332.034 651.669 332.034 651.65 332.034Z" fill="#76AE99" transform="matrix(1.00267 0 0 1 495.543 329.377)"/><path d="M608.892 332.034 593.323 332.034C592.487 332.034 591.81 332.712 591.81 333.547L591.81 334.17C592.283 333.74 592.788 333.547 593.192 333.877 593.958 334.457 594.077 336.618 595.098 337.427 595.591 337.757 596.136 338.001 596.711 338.149 596.518 337.782 595.883 337.327 596.375 336.761 597.397 336.164 598.708 336.509 599.305 337.53 599.323 337.562 599.341 337.594 599.358 337.626 599.462 337.858 599.541 338.1 599.594 338.349 599.614 338.451 599.661 338.546 599.731 338.623 599.812 338.685 599.924 338.673 600.012 338.71 600.265 338.841 600.497 339.011 600.697 339.214 600.771 339.146 600.697 339.102 600.697 339.028 600.697 338.953 600.628 338.816 600.697 338.847 600.883 338.947 601.02 339.14 601.207 339.239 601.282 339.115 601.207 338.81 601.4 338.978 601.593 339.146 601.662 339.364 601.818 339.52 601.923 339.358 601.743 338.698 602.067 339.158 602.129 339.252 602.291 339.613 602.415 339.607 602.54 339.6 602.471 339.227 602.515 339.115 602.795 339.308 602.808 339.706 603.026 339.937 603.102 339.85 603.145 339.741 603.15 339.625 603.15 339.576 603.15 339.401 603.188 339.376 603.225 339.351 603.399 339.837 603.418 339.912 603.437 339.987 603.605 340.286 603.686 340.036 603.686 339.943 603.723 339.619 603.829 339.731 603.848 339.751 603.862 339.774 603.873 339.8 603.997 340.036 603.941 340.36 604.072 340.616 604.221 340.572 604.259 340.373 604.389 340.298 604.489 340.435 604.346 340.921 604.545 340.921 604.626 340.921 604.72 340.746 604.782 340.921 604.782 340.964 604.72 341.101 604.707 341.151 604.695 341.201 604.657 341.525 604.707 341.543 606.519 342.422 606.937 343.58 607.671 344.969 608.101 345.778 608.786 346.457 609.091 347.335 609.197 347.634 609.259 348.039 608.929 348.213 608.535 348.373 608.102 348.415 607.684 348.332 606.227 348.114 604.57 347.391 603.206 347.329 602.621 348.051 601.338 349.372 601.126 349.272 600.914 349.172 601.02 347.404 601.519 346.65 599.913 346.081 598.537 345.003 597.601 343.58 597.514 343.499 597.29 343.58 597.147 343.468 596.561 342.982 595.086 343.119 594.257 342.309 593.429 341.5 595.048 340.547 595.852 340.809 594.986 339.818 593.787 339.18 592.482 339.015 592.258 338.984 592.031 338.965 591.804 338.959L591.804 349.129C591.8 349.961 592.472 350.638 593.304 350.642 593.309 350.642 593.313 350.642 593.317 350.642L608.886 350.642C609.721 350.642 610.399 349.964 610.399 349.129L610.399 333.56C610.406 332.724 609.734 332.041 608.898 332.034 608.896 332.034 608.894 332.034 608.892 332.034Z" fill="#492F92" transform="matrix(1.00267 0 0 1 495.543 329.377)"/><path d="M603.505 345.492C603.505 345.492 604.128 343.331 605.373 343.001 605.373 343.001 603.144 345.099 604.576 346.955 604.576 346.955 599.09 346.046 596.642 341.089 596.599 341.095 600.74 346.021 603.505 345.492Z" fill="#492F92" fill-opacity="0.54" transform="matrix(1.00267 0 0 1 495.543 329.377)"/><path d="M100.787 73.2422C100.787 73.5379 100.541 73.7777 100.239 73.7777 99.9359 73.7777 99.6905 73.5379 99.6905 73.2422 99.6905 72.9464 99.9359 72.7066 100.239 72.7066 100.541 72.7066 100.787 72.9464 100.787 73.2422Z" fill="#492F92" transform="matrix(1.00267 0 0 1 1003.2 602)"/><path d="M566.134 332.034 550.565 332.034C549.732 332.03 549.055 332.702 549.052 333.535 549.052 333.537 549.052 333.539 549.052 333.541L549.052 334.077 549.238 334.002C552.01 333.167 553.292 334.046 553.305 334.052 553.317 334.058 553.977 333.884 554.009 333.877 554.512 333.817 555.021 333.796 555.528 333.815 556.492 333.931 557.387 334.37 558.069 335.061 558.932 335.776 559.715 336.581 560.404 337.464 561.68 339.206 562.727 341.104 563.518 343.113 564.379 345.081 565.006 347.145 565.386 349.259 565.424 349.471 565.449 349.683 565.486 349.882 565.323 349.18 565.013 348.52 564.577 347.945 563.81 346.918 562.831 346.068 561.706 345.454 561.083 345.056 560.392 344.682 559.732 344.315 559.072 343.947 558.486 343.605 557.926 343.2 556.772 342.503 555.724 341.646 554.812 340.653 554.569 340.361 554.381 340.028 554.258 339.669 554.224 339.475 554.172 339.286 554.102 339.102 554.164 339.208 554.631 339.14 554.725 339.102 554.952 339.049 555.129 338.874 555.186 338.648 555.286 338.258 555.052 337.861 554.663 337.76 554.651 337.757 554.638 337.753 554.625 337.751 554.412 337.732 554.197 337.768 554.002 337.857 553.852 337.935 553.712 338.031 553.585 338.143 553.337 337.512 553.19 336.846 553.149 336.169 553.031 335.073 553 334.481 553 334.481 552.489 333.921 551.393 333.815 550.042 334.232 549.663 334.373 549.314 334.585 549.014 334.855L549.014 349.048C549.014 349.883 549.692 350.561 550.527 350.561L566.096 350.561C566.932 350.561 567.61 349.883 567.61 349.048L567.61 333.479C567.577 332.683 566.93 332.05 566.134 332.034Z" fill="#006225" transform="matrix(1.00267 0 0 1 495.543 329.377)"/><g clip-path="url(#clip1)"><path d="M523.737 332.034 507.464 332.034C506.829 332.03 506.309 332.539 506.299 333.174L506.299 349.44C506.299 350.083 506.821 350.605 507.464 350.605L523.737 350.605C524.376 350.608 524.897 350.092 524.901 349.452 524.901 349.448 524.901 349.444 524.901 349.44L524.901 333.174C524.905 332.534 524.389 332.013 523.749 332.009 523.745 332.009 523.741 332.009 523.737 332.009M522.56 345.255C521.571 343.976 519.734 343.739 518.454 344.728 518.256 344.88 518.079 345.058 517.926 345.255 516.938 343.976 515.1 343.739 513.82 344.728 513.623 344.88 513.445 345.058 513.293 345.255 512.305 343.976 510.467 343.739 509.187 344.728 508.99 344.88 508.812 345.058 508.66 345.255 508.316 345.255 508.037 344.976 508.037 344.632 508.037 344.289 508.316 344.01 508.66 344.01 509.599 344.01 510.36 343.249 510.36 342.309 510.36 341.966 510.639 341.687 510.983 341.687 511.326 341.687 511.605 341.966 511.605 342.309 511.605 343.249 512.366 344.01 513.305 344.01 514.245 344.01 515.005 343.249 515.005 342.309 515.005 341.966 515.284 341.687 515.628 341.687 515.972 341.687 516.251 341.966 516.251 342.309 516.251 343.249 517.012 344.01 517.951 344.01 518.89 344.01 519.651 343.249 519.651 342.309 519.651 341.966 519.93 341.687 520.274 341.687 520.618 341.687 520.897 341.966 520.897 342.309 520.9 343.247 521.659 344.007 522.597 344.01 522.941 344.01 523.22 344.289 523.22 344.632 523.22 344.976 522.941 345.255 522.597 345.255M522.597 340.896C521.609 339.617 519.771 339.38 518.491 340.368 518.294 340.521 518.116 340.698 517.964 340.896 516.975 339.617 515.138 339.38 513.858 340.368 513.66 340.521 513.483 340.698 513.33 340.896 512.342 339.617 510.504 339.38 509.225 340.368 509.027 340.521 508.85 340.698 508.697 340.896 508.353 340.896 508.074 340.617 508.074 340.273 508.074 339.929 508.353 339.65 508.697 339.65 509.636 339.65 510.397 338.889 510.397 337.95 510.397 337.606 510.676 337.327 511.02 337.327 511.364 337.327 511.643 337.606 511.643 337.95 511.643 338.889 512.404 339.65 513.343 339.65 514.282 339.65 515.043 338.889 515.043 337.95 515.043 337.606 515.322 337.327 515.666 337.327 516.009 337.327 516.288 337.606 516.288 337.95 516.288 338.889 517.049 339.65 517.989 339.65 518.928 339.65 519.689 338.889 519.689 337.95 519.689 337.606 519.968 337.327 520.311 337.327 520.655 337.327 520.934 337.606 520.934 337.95 520.937 338.887 521.696 339.647 522.634 339.65 522.978 339.65 523.257 339.929 523.257 340.273 523.257 340.617 522.978 340.896 522.634 340.896" fill="#04203C" transform="matrix(1.00267 0 0 1 495.543 329.377)"/></g></g></svg>